<?xml version="1.0" encoding="UTF-8" standalone="no"?>
<!DOCTYPE svg PUBLIC "-//W3C//DTD SVG 1.1//EN"
 "http://www.w3.org/Graphics/SVG/1.1/DTD/svg11.dtd">
<!-- Generated by graphviz version 12.2.1 (0)
 -->
<!-- Title: DockerDeps Pages: 1 -->
<svg width="1563pt" height="968pt"
 viewBox="0.00 0.00 1562.50 967.81" xmlns="http://www.w3.org/2000/svg" xmlns:xlink="http://www.w3.org/1999/xlink">
<g id="graph0" class="graph" transform="scale(1 1) rotate(0) translate(4 963.81)">
<title>DockerDeps</title>
<polygon fill="white" stroke="none" points="-4,4 -4,-963.81 1558.5,-963.81 1558.5,4 -4,4"/>
<g id="clust1" class="cluster">
<title>clusterDockerfile</title>
<polygon fill="none" stroke="royalblue" points="428,-120.5 428,-874.06 952,-874.06 952,-120.5 428,-120.5"/>
<text text-anchor="middle" x="690" y="-856.76" font-family="Times,serif" font-size="14.00">docker/&lt;distro&gt;/Dockerfile</text>
</g>
<g id="clust2" class="cluster">
<title>clusterCache</title>
<polygon fill="none" stroke="royalblue" points="8,-8 8,-85.25 1374,-85.25 1374,-8 8,-8"/>
<text text-anchor="middle" x="691" y="-67.95" font-family="Times,serif" font-size="14.00">cache/&lt;distro&gt;/</text>
</g>
<!-- DISTRO_IMG -->
<g id="node1" class="node">
<title>DISTRO_IMG</title>
<path fill="royalblue" stroke="black" d="M620.5,-953.29C620.5,-955.1 592.04,-956.56 557,-956.56 521.96,-956.56 493.5,-955.1 493.5,-953.29 493.5,-953.29 493.5,-923.84 493.5,-923.84 493.5,-922.03 521.96,-920.56 557,-920.56 592.04,-920.56 620.5,-922.03 620.5,-923.84 620.5,-923.84 620.5,-953.29 620.5,-953.29"/>
<path fill="none" stroke="black" d="M620.5,-953.29C620.5,-951.48 592.04,-950.02 557,-950.02 521.96,-950.02 493.5,-951.48 493.5,-953.29"/>
<text text-anchor="middle" x="557" y="-933.89" font-family="Times,serif" font-size="14.00">&lt;distro&gt;:latest</text>
</g>
<!-- ENV_IMG -->
<g id="node5" class="node">
<title>ENV_IMG</title>
<path fill="royalblue" stroke="black" d="M726,-835.5C726,-838.43 687.45,-840.81 640,-840.81 592.55,-840.81 554,-838.43 554,-835.5 554,-835.5 554,-787.69 554,-787.69 554,-784.76 592.55,-782.38 640,-782.38 687.45,-782.38 726,-784.76 726,-787.69 726,-787.69 726,-835.5 726,-835.5"/>
<path fill="none" stroke="black" d="M726,-835.5C726,-832.57 687.45,-830.19 640,-830.19 592.55,-830.19 554,-832.57 554,-835.5"/>
<text text-anchor="middle" x="640" y="-815.54" font-family="Times,serif" font-size="14.00">match3:&lt;distro&gt;_env</text>
<text text-anchor="middle" x="640" y="-798.29" font-family="Times,serif" font-size="14.00">env</text>
</g>
<!-- DISTRO_IMG&#45;&gt;ENV_IMG -->
<g id="edge10" class="edge">
<title>DISTRO_IMG&#45;&gt;ENV_IMG</title>
<path fill="none" stroke="black" d="M568.54,-920.19C580.47,-902.23 599.46,-873.63 614.87,-850.43"/>
<polygon fill="black" stroke="black" points="617.77,-852.39 620.39,-842.12 611.94,-848.52 617.77,-852.39"/>
</g>
<!-- PKG -->
<g id="node2" class="node">
<title>PKG</title>
<polygon fill="royalblue" stroke="black" points="805.75,-959.81 642.25,-959.81 638.25,-955.81 638.25,-917.31 801.75,-917.31 805.75,-921.31 805.75,-959.81"/>
<polyline fill="none" stroke="black" points="801.75,-955.81 638.25,-955.81"/>
<polyline fill="none" stroke="black" points="801.75,-955.81 801.75,-917.31"/>
<polyline fill="none" stroke="black" points="801.75,-955.81 805.75,-959.81"/>
<text text-anchor="middle" x="722" y="-942.51" font-family="Times,serif" font-size="14.00">packages</text>
<text text-anchor="middle" x="722" y="-925.26" font-family="Times,serif" font-size="14.00">e.g. cmake, g++, qt6</text>
</g>
<!-- PKG&#45;&gt;ENV_IMG -->
<g id="edge11" class="edge">
<title>PKG&#45;&gt;ENV_IMG</title>
<path fill="none" stroke="black" stroke-dasharray="5,2" d="M708.46,-916.93C696.7,-899.01 679.38,-872.6 665.09,-850.84"/>
<polygon fill="black" stroke="black" points="668.02,-848.92 659.61,-842.48 662.17,-852.76 668.02,-848.92"/>
<text text-anchor="middle" x="717.6" y="-886.01" font-family="Times,serif" font-size="14.00">install</text>
</g>
<!-- SRC -->
<g id="node3" class="node">
<title>SRC</title>
<polygon fill="royalblue" stroke="black" points="1032.12,-829.59 1029.12,-833.59 1008.12,-833.59 1005.12,-829.59 959.88,-829.59 959.88,-793.59 1032.12,-793.59 1032.12,-829.59"/>
<text text-anchor="middle" x="996" y="-806.92" font-family="Times,serif" font-size="14.00">git repo</text>
</g>
<!-- DEVEL_IMG -->
<g id="node6" class="node">
<title>DEVEL_IMG</title>
<path fill="royalblue" stroke="black" d="M894.38,-723.81C894.38,-726.74 852.97,-729.12 802,-729.12 751.03,-729.12 709.62,-726.74 709.62,-723.81 709.62,-723.81 709.62,-676 709.62,-676 709.62,-673.07 751.03,-670.69 802,-670.69 852.97,-670.69 894.38,-673.07 894.38,-676 894.38,-676 894.38,-723.81 894.38,-723.81"/>
<path fill="none" stroke="black" d="M894.38,-723.81C894.38,-720.88 852.97,-718.5 802,-718.5 751.03,-718.5 709.62,-720.88 709.62,-723.81"/>
<text text-anchor="middle" x="802" y="-703.86" font-family="Times,serif" font-size="14.00">match3:&lt;distro&gt;_devel</text>
<text text-anchor="middle" x="802" y="-686.61" font-family="Times,serif" font-size="14.00">devel</text>
</g>
<!-- SRC&#45;&gt;DEVEL_IMG -->
<g id="edge12" class="edge">
<title>SRC&#45;&gt;DEVEL_IMG</title>
<path fill="none" stroke="black" stroke-dasharray="5,2" d="M972.65,-793.37C967.27,-789.61 961.5,-785.75 956,-782.38 928.46,-765.47 897.08,-748.48 869.86,-734.43"/>
<polygon fill="black" stroke="black" points="871.49,-731.33 861,-729.88 868.3,-737.56 871.49,-731.33"/>
<text text-anchor="middle" x="939.58" y="-751.08" font-family="Times,serif" font-size="14.00">copy</text>
</g>
<!-- SPL -->
<g id="node4" class="node">
<title>SPL</title>
<polygon fill="royalblue" stroke="black" points="510.25,-510.78 507.25,-514.78 486.25,-514.78 483.25,-510.78 435.75,-510.78 435.75,-474.78 510.25,-474.78 510.25,-510.78"/>
<text text-anchor="middle" x="473" y="-488.11" font-family="Times,serif" font-size="14.00">samples</text>
</g>
<!-- INSTALL_DEVEL_IMG -->
<g id="node10" class="node">
<title>INSTALL_DEVEL_IMG</title>
<path fill="royalblue" stroke="black" d="M735.88,-405C735.88,-407.93 683.04,-410.31 618,-410.31 552.96,-410.31 500.12,-407.93 500.12,-405 500.12,-405 500.12,-357.19 500.12,-357.19 500.12,-354.26 552.96,-351.88 618,-351.88 683.04,-351.88 735.88,-354.26 735.88,-357.19 735.88,-357.19 735.88,-405 735.88,-405"/>
<path fill="none" stroke="black" d="M735.88,-405C735.88,-402.07 683.04,-399.69 618,-399.69 552.96,-399.69 500.12,-402.07 500.12,-405"/>
<text text-anchor="middle" x="618" y="-385.04" font-family="Times,serif" font-size="14.00">match3:&lt;distro&gt;_install_devel</text>
<text text-anchor="middle" x="618" y="-367.79" font-family="Times,serif" font-size="14.00">install_devel</text>
</g>
<!-- SPL&#45;&gt;INSTALL_DEVEL_IMG -->
<g id="edge7" class="edge">
<title>SPL&#45;&gt;INSTALL_DEVEL_IMG</title>
<path fill="none" stroke="black" stroke-dasharray="5,2" d="M495.98,-474.4C516.1,-459.18 545.99,-436.57 571.14,-417.54"/>
<polygon fill="black" stroke="black" points="573.1,-420.45 578.96,-411.63 568.87,-414.87 573.1,-420.45"/>
<text text-anchor="middle" x="570.68" y="-432.26" font-family="Times,serif" font-size="14.00">copy</text>
</g>
<!-- ENV_IMG&#45;&gt;DEVEL_IMG -->
<g id="edge1" class="edge">
<title>ENV_IMG&#45;&gt;DEVEL_IMG</title>
<path fill="none" stroke="black" d="M682.14,-782.06C702.97,-767.96 728.28,-750.82 750.27,-735.93"/>
<polygon fill="black" stroke="black" points="752.22,-738.84 758.54,-730.34 748.29,-733.04 752.22,-738.84"/>
</g>
<!-- INSTALL_ENV_IMG -->
<g id="node9" class="node">
<title>INSTALL_ENV_IMG</title>
<path fill="royalblue" stroke="black" d="M751.5,-516.69C751.5,-519.62 701.52,-522 640,-522 578.48,-522 528.5,-519.62 528.5,-516.69 528.5,-516.69 528.5,-468.88 528.5,-468.88 528.5,-465.94 578.48,-463.56 640,-463.56 701.52,-463.56 751.5,-465.94 751.5,-468.88 751.5,-468.88 751.5,-516.69 751.5,-516.69"/>
<path fill="none" stroke="black" d="M751.5,-516.69C751.5,-513.76 701.52,-511.38 640,-511.38 578.48,-511.38 528.5,-513.76 528.5,-516.69"/>
<text text-anchor="middle" x="640" y="-496.73" font-family="Times,serif" font-size="14.00">match3:&lt;distro&gt;_install_env</text>
<text text-anchor="middle" x="640" y="-479.48" font-family="Times,serif" font-size="14.00">install_env</text>
</g>
<!-- ENV_IMG&#45;&gt;INSTALL_ENV_IMG -->
<g id="edge4" class="edge">
<title>ENV_IMG&#45;&gt;INSTALL_ENV_IMG</title>
<path fill="none" stroke="black" d="M640,-781.92C640,-725.14 640,-598.28 640,-533.5"/>
<polygon fill="black" stroke="black" points="643.5,-533.68 640,-523.68 636.5,-533.68 643.5,-533.68"/>
</g>
<!-- ENV_TAR -->
<g id="node13" class="node">
<title>ENV_TAR</title>
<polygon fill="royalblue" stroke="black" points="129.75,-52 16.25,-52 16.25,-16 135.75,-16 135.75,-46 129.75,-52"/>
<polyline fill="none" stroke="black" points="129.75,-52 129.75,-46"/>
<polyline fill="none" stroke="black" points="135.75,-46 129.75,-46"/>
<text text-anchor="middle" x="76" y="-29.32" font-family="Times,serif" font-size="14.00">docker_env.tar</text>
</g>
<!-- ENV_IMG&#45;&gt;ENV_TAR -->
<g id="edge13" class="edge">
<title>ENV_IMG&#45;&gt;ENV_TAR</title>
<path fill="none" stroke="red" d="M553.57,-811.33C396.21,-810.31 79,-796.42 79,-700.91 79,-700.91 79,-700.91 79,-156.72 79,-124.89 77.96,-88.4 77.11,-63.74"/>
<polygon fill="red" stroke="red" points="80.61,-63.71 76.75,-53.84 73.61,-63.96 80.61,-63.71"/>
<text text-anchor="middle" x="169" y="-432.26" font-family="Times,serif" font-size="14.00">make save_&lt;distro&gt;_env</text>
</g>
<!-- BUILD_IMG -->
<g id="node7" class="node">
<title>BUILD_IMG</title>
<path fill="royalblue" stroke="black" d="M944.25,-628.38C944.25,-631.31 903.35,-633.69 853,-633.69 802.65,-633.69 761.75,-631.31 761.75,-628.38 761.75,-628.38 761.75,-580.56 761.75,-580.56 761.75,-577.63 802.65,-575.25 853,-575.25 903.35,-575.25 944.25,-577.63 944.25,-580.56 944.25,-580.56 944.25,-628.38 944.25,-628.38"/>
<path fill="none" stroke="black" d="M944.25,-628.38C944.25,-625.44 903.35,-623.06 853,-623.06 802.65,-623.06 761.75,-625.44 761.75,-628.38"/>
<text text-anchor="middle" x="853" y="-608.42" font-family="Times,serif" font-size="14.00">match3:&lt;distro&gt;_build</text>
<text text-anchor="middle" x="853" y="-591.17" font-family="Times,serif" font-size="14.00">build</text>
</g>
<!-- DEVEL_IMG&#45;&gt;BUILD_IMG -->
<g id="edge2" class="edge">
<title>DEVEL_IMG&#45;&gt;BUILD_IMG</title>
<path fill="none" stroke="black" d="M817.58,-670.36C822.08,-662.11 827.08,-652.96 831.86,-644.19"/>
<polygon fill="black" stroke="black" points="834.9,-645.94 836.62,-635.49 828.75,-642.59 834.9,-645.94"/>
</g>
<!-- DEVEL_TAR -->
<g id="node14" class="node">
<title>DEVEL_TAR</title>
<polygon fill="royalblue" stroke="black" points="282.25,-52 153.75,-52 153.75,-16 288.25,-16 288.25,-46 282.25,-52"/>
<polyline fill="none" stroke="black" points="282.25,-52 282.25,-46"/>
<polyline fill="none" stroke="black" points="288.25,-46 282.25,-46"/>
<text text-anchor="middle" x="221" y="-29.32" font-family="Times,serif" font-size="14.00">docker_devel.tar</text>
</g>
<!-- DEVEL_IMG&#45;&gt;DEVEL_TAR -->
<g id="edge14" class="edge">
<title>DEVEL_IMG&#45;&gt;DEVEL_TAR</title>
<path fill="none" stroke="red" d="M709.4,-691.68C559.19,-678.69 279,-648.68 279,-605.47 279,-605.47 279,-605.47 279,-156.72 279,-121.13 258.54,-84.87 241.92,-61.3"/>
<polygon fill="red" stroke="red" points="244.97,-59.53 236.23,-53.54 239.32,-63.67 244.97,-59.53"/>
<text text-anchor="middle" x="375.38" y="-376.42" font-family="Times,serif" font-size="14.00">make save_&lt;distro&gt;_devel</text>
</g>
<!-- TEST_IMG -->
<g id="node8" class="node">
<title>TEST_IMG</title>
<path fill="royalblue" stroke="black" d="M944.12,-516.69C944.12,-519.62 905.07,-522 857,-522 808.93,-522 769.88,-519.62 769.88,-516.69 769.88,-516.69 769.88,-468.88 769.88,-468.88 769.88,-465.94 808.93,-463.56 857,-463.56 905.07,-463.56 944.12,-465.94 944.12,-468.88 944.12,-468.88 944.12,-516.69 944.12,-516.69"/>
<path fill="none" stroke="black" d="M944.12,-516.69C944.12,-513.76 905.07,-511.38 857,-511.38 808.93,-511.38 769.88,-513.76 769.88,-516.69"/>
<text text-anchor="middle" x="857" y="-496.73" font-family="Times,serif" font-size="14.00">match3:&lt;distro&gt;_test</text>
<text text-anchor="middle" x="857" y="-479.48" font-family="Times,serif" font-size="14.00">test</text>
</g>
<!-- BUILD_IMG&#45;&gt;TEST_IMG -->
<g id="edge3" class="edge">
<title>BUILD_IMG&#45;&gt;TEST_IMG</title>
<path fill="none" stroke="black" d="M854.04,-574.94C854.5,-562.24 855.06,-547.08 855.56,-533.32"/>
<polygon fill="black" stroke="black" points="859.04,-533.8 855.91,-523.68 852.05,-533.55 859.04,-533.8"/>
</g>
<!-- BUILD_IMG&#45;&gt;INSTALL_ENV_IMG -->
<g id="edge5" class="edge">
<title>BUILD_IMG&#45;&gt;INSTALL_ENV_IMG</title>
<path fill="none" stroke="black" stroke-dasharray="5,2" d="M797.87,-575.08C769.75,-560.6 735.35,-542.89 705.85,-527.69"/>
<polygon fill="black" stroke="black" points="707.48,-524.59 696.98,-523.13 704.27,-530.82 707.48,-524.59"/>
<text text-anchor="middle" x="800.13" y="-543.95" font-family="Times,serif" font-size="14.00">copy install</text>
</g>
<!-- BUILD_TAR -->
<g id="node15" class="node">
<title>BUILD_TAR</title>
<polygon fill="royalblue" stroke="black" points="1360.12,-52 1233.88,-52 1233.88,-16 1366.12,-16 1366.12,-46 1360.12,-52"/>
<polyline fill="none" stroke="black" points="1360.12,-52 1360.12,-46"/>
<polyline fill="none" stroke="black" points="1366.12,-46 1360.12,-46"/>
<text text-anchor="middle" x="1300" y="-29.32" font-family="Times,serif" font-size="14.00">docker_build.tar</text>
</g>
<!-- BUILD_IMG&#45;&gt;BUILD_TAR -->
<g id="edge15" class="edge">
<title>BUILD_IMG&#45;&gt;BUILD_TAR</title>
<path fill="none" stroke="red" d="M944.65,-602.34C1091.7,-598.02 1364,-578.56 1364,-493.78 1364,-493.78 1364,-493.78 1364,-156.72 1364,-120.63 1341.68,-84.72 1323.41,-61.36"/>
<polygon fill="red" stroke="red" points="1326.14,-59.17 1317.11,-53.62 1320.71,-63.59 1326.14,-59.17"/>
<text text-anchor="middle" x="1459.25" y="-320.57" font-family="Times,serif" font-size="14.00">make save_&lt;distro&gt;_build</text>
</g>
<!-- TEST_TAR -->
<g id="node16" class="node">
<title>TEST_TAR</title>
<polygon fill="royalblue" stroke="black" points="1210,-52 1092,-52 1092,-16 1216,-16 1216,-46 1210,-52"/>
<polyline fill="none" stroke="black" points="1210,-52 1210,-46"/>
<polyline fill="none" stroke="black" points="1216,-46 1210,-46"/>
<text text-anchor="middle" x="1154" y="-29.32" font-family="Times,serif" font-size="14.00">docker_test.tar</text>
</g>
<!-- TEST_IMG&#45;&gt;TEST_TAR -->
<g id="edge16" class="edge">
<title>TEST_IMG&#45;&gt;TEST_TAR</title>
<path fill="none" stroke="red" d="M944.5,-476.93C1032.11,-459.51 1154,-427.17 1154,-382.09 1154,-382.09 1154,-382.09 1154,-156.72 1154,-124.9 1154,-88.41 1154,-63.74"/>
<polygon fill="red" stroke="red" points="1157.5,-63.85 1154,-53.85 1150.5,-63.85 1157.5,-63.85"/>
<text text-anchor="middle" x="1245.12" y="-264.73" font-family="Times,serif" font-size="14.00">make save_&lt;distro&gt;_test</text>
</g>
<!-- INSTALL_ENV_IMG&#45;&gt;INSTALL_DEVEL_IMG -->
<g id="edge6" class="edge">
<title>INSTALL_ENV_IMG&#45;&gt;INSTALL_DEVEL_IMG</title>
<path fill="none" stroke="black" d="M634.28,-463.25C631.73,-450.55 628.69,-435.39 625.93,-421.63"/>
<polygon fill="black" stroke="black" points="629.39,-421.08 623.99,-411.97 622.53,-422.46 629.39,-421.08"/>
</g>
<!-- INSTALL_ENV_TAR -->
<g id="node17" class="node">
<title>INSTALL_ENV_TAR</title>
<polygon fill="royalblue" stroke="black" points="1068.25,-52 903.75,-52 903.75,-16 1074.25,-16 1074.25,-46 1068.25,-52"/>
<polyline fill="none" stroke="black" points="1068.25,-52 1068.25,-46"/>
<polyline fill="none" stroke="black" points="1074.25,-46 1068.25,-46"/>
<text text-anchor="middle" x="989" y="-29.32" font-family="Times,serif" font-size="14.00">docker_install_env.tar</text>
</g>
<!-- INSTALL_ENV_IMG&#45;&gt;INSTALL_ENV_TAR -->
<g id="edge17" class="edge">
<title>INSTALL_ENV_IMG&#45;&gt;INSTALL_ENV_TAR</title>
<path fill="none" stroke="red" d="M680.17,-463.11C700.29,-448.14 724.63,-429.07 745,-410.31 820.46,-340.82 830.13,-314.36 901,-240.19 924.07,-216.04 937.85,-216.17 954,-186.94 975.82,-147.44 984.06,-94.95 987.16,-63.15"/>
<polygon fill="red" stroke="red" points="990.62,-63.81 987.98,-53.54 983.64,-63.21 990.62,-63.81"/>
<text text-anchor="middle" x="1016.5" y="-264.73" font-family="Times,serif" font-size="14.00">make save_&lt;distro&gt;_install_env</text>
</g>
<!-- INSTALL_BUILD_IMG -->
<g id="node11" class="node">
<title>INSTALL_BUILD_IMG</title>
<path fill="royalblue" stroke="black" d="M765.75,-293.31C765.75,-296.24 713.42,-298.62 649,-298.62 584.58,-298.62 532.25,-296.24 532.25,-293.31 532.25,-293.31 532.25,-245.5 532.25,-245.5 532.25,-242.57 584.58,-240.19 649,-240.19 713.42,-240.19 765.75,-242.57 765.75,-245.5 765.75,-245.5 765.75,-293.31 765.75,-293.31"/>
<path fill="none" stroke="black" d="M765.75,-293.31C765.75,-290.38 713.42,-288 649,-288 584.58,-288 532.25,-290.38 532.25,-293.31"/>
<text text-anchor="middle" x="649" y="-273.36" font-family="Times,serif" font-size="14.00">match3:&lt;distro&gt;_install_build</text>
<text text-anchor="middle" x="649" y="-256.11" font-family="Times,serif" font-size="14.00">install_build</text>
</g>
<!-- INSTALL_DEVEL_IMG&#45;&gt;INSTALL_BUILD_IMG -->
<g id="edge8" class="edge">
<title>INSTALL_DEVEL_IMG&#45;&gt;INSTALL_BUILD_IMG</title>
<path fill="none" stroke="black" d="M626.06,-351.56C629.69,-338.74 634.02,-323.4 637.94,-309.53"/>
<polygon fill="black" stroke="black" points="641.21,-310.83 640.56,-300.25 634.48,-308.92 641.21,-310.83"/>
</g>
<!-- INSTALL_DEVEL_TAR -->
<g id="node18" class="node">
<title>INSTALL_DEVEL_TAR</title>
<polygon fill="royalblue" stroke="black" points="485.75,-52 306.25,-52 306.25,-16 491.75,-16 491.75,-46 485.75,-52"/>
<polyline fill="none" stroke="black" points="485.75,-52 485.75,-46"/>
<polyline fill="none" stroke="black" points="491.75,-46 485.75,-46"/>
<text text-anchor="middle" x="399" y="-29.32" font-family="Times,serif" font-size="14.00">docker_install_devel.tar</text>
</g>
<!-- INSTALL_DEVEL_IMG&#45;&gt;INSTALL_DEVEL_TAR -->
<g id="edge18" class="edge">
<title>INSTALL_DEVEL_IMG&#45;&gt;INSTALL_DEVEL_TAR</title>
<path fill="none" stroke="red" d="M547.87,-351.66C495.55,-326.25 427.87,-283.52 396.25,-222.19 370.06,-171.38 381.15,-102.03 390.66,-63.59"/>
<polygon fill="red" stroke="red" points="394.04,-64.52 393.2,-53.95 387.27,-62.74 394.04,-64.52"/>
<text text-anchor="middle" x="518.12" y="-208.89" font-family="Times,serif" font-size="14.00">make save_&lt;distro&gt;_install_devel</text>
</g>
<!-- INSTALL_TEST_IMG -->
<g id="node12" class="node">
<title>INSTALL_TEST_IMG</title>
<path fill="royalblue" stroke="black" d="M661.62,-181.62C661.62,-184.56 611.14,-186.94 549,-186.94 486.86,-186.94 436.38,-184.56 436.38,-181.62 436.38,-181.62 436.38,-133.81 436.38,-133.81 436.38,-130.88 486.86,-128.5 549,-128.5 611.14,-128.5 661.62,-130.88 661.62,-133.81 661.62,-133.81 661.62,-181.62 661.62,-181.62"/>
<path fill="none" stroke="black" d="M661.62,-181.62C661.62,-178.69 611.14,-176.31 549,-176.31 486.86,-176.31 436.38,-178.69 436.38,-181.62"/>
<text text-anchor="middle" x="549" y="-161.67" font-family="Times,serif" font-size="14.00">match3:&lt;distro&gt;_install_test</text>
<text text-anchor="middle" x="549" y="-144.42" font-family="Times,serif" font-size="14.00">install_test</text>
</g>
<!-- INSTALL_BUILD_IMG&#45;&gt;INSTALL_TEST_IMG -->
<g id="edge9" class="edge">
<title>INSTALL_BUILD_IMG&#45;&gt;INSTALL_TEST_IMG</title>
<path fill="none" stroke="black" d="M652.66,-239.82C652.73,-228.11 650.85,-214.98 644,-204.94 641.27,-200.93 638.09,-197.26 634.58,-193.89"/>
<polygon fill="black" stroke="black" points="636.94,-191.3 627.02,-187.56 632.44,-196.67 636.94,-191.3"/>
</g>
<!-- INSTALL_BUILD_TAR -->
<g id="node19" class="node">
<title>INSTALL_BUILD_TAR</title>
<polygon fill="royalblue" stroke="black" points="879.62,-52 702.38,-52 702.38,-16 885.62,-16 885.62,-46 879.62,-52"/>
<polyline fill="none" stroke="black" points="879.62,-52 879.62,-46"/>
<polyline fill="none" stroke="black" points="885.62,-46 879.62,-46"/>
<text text-anchor="middle" x="794" y="-29.32" font-family="Times,serif" font-size="14.00">docker_install_build.tar</text>
</g>
<!-- INSTALL_BUILD_IMG&#45;&gt;INSTALL_BUILD_TAR -->
<g id="edge19" class="edge">
<title>INSTALL_BUILD_IMG&#45;&gt;INSTALL_BUILD_TAR</title>
<path fill="none" stroke="red" d="M657.83,-239.93C668.18,-209 687.17,-158.86 712.5,-120.5 727.32,-98.06 748.34,-76.17 765.32,-60.16"/>
<polygon fill="red" stroke="red" points="767.7,-62.73 772.67,-53.38 762.95,-57.59 767.7,-62.73"/>
<text text-anchor="middle" x="833.25" y="-153.04" font-family="Times,serif" font-size="14.00">make save_&lt;distro&gt;_install_build</text>
</g>
<!-- INSTALL_TEST_TAR -->
<g id="node20" class="node">
<title>INSTALL_TEST_TAR</title>
<polygon fill="royalblue" stroke="black" points="678.5,-52 509.5,-52 509.5,-16 684.5,-16 684.5,-46 678.5,-52"/>
<polyline fill="none" stroke="black" points="678.5,-52 678.5,-46"/>
<polyline fill="none" stroke="black" points="684.5,-46 678.5,-46"/>
<text text-anchor="middle" x="597" y="-29.32" font-family="Times,serif" font-size="14.00">docker_install_test.tar</text>
</g>
<!-- INSTALL_TEST_IMG&#45;&gt;INSTALL_TEST_TAR -->
<g id="edge20" class="edge">
<title>INSTALL_TEST_IMG&#45;&gt;INSTALL_TEST_TAR</title>
<path fill="none" stroke="red" d="M464.22,-129.13C447.7,-119.39 438.75,-107.31 450.75,-93.25 458.09,-84.65 490.27,-88.81 501,-85.25 521.3,-78.52 542.5,-67.86 559.8,-58.08"/>
<polygon fill="red" stroke="red" points="561.29,-61.27 568.19,-53.23 557.78,-55.21 561.29,-61.27"/>
<text text-anchor="middle" x="567.38" y="-97.2" font-family="Times,serif" font-size="14.00">make save_&lt;distro&gt;_install_test</text>
</g>
</g>
</svg>
